<?xml version="1.0" encoding="UTF-8"?>
<!DOCTYPE svg PUBLIC "-//W3C//DTD SVG 1.1//EN" "http://www.w3.org/Graphics/SVG/1.1/DTD/svg11.dtd">
<!-- Creator: CorelDRAW 2020 (64-Bit) -->
<svg xmlns="http://www.w3.org/2000/svg" xml:space="preserve" width="90.2822mm" height="101.913mm" version="1.1" style="shape-rendering:geometricPrecision; text-rendering:geometricPrecision; image-rendering:optimizeQuality; fill-rule:evenodd; clip-rule:evenodd"
viewBox="0 0 2022.52 2283.07"
 xmlns:xlink="http://www.w3.org/1999/xlink"
 xmlns:xodm="http://www.corel.com/coreldraw/odm/2003">
 <defs>
  <style type="text/css">
   <![CDATA[
    .fil2 {fill:#FEFEFE}
    .fil0 {fill:#56AEFF}
    .fil1 {fill:#B1D4E0}
   ]]>
  </style>
 </defs>
 <g id="Layer_x0020_1">
  <metadata id="CorelCorpID_0Corel-Layer"/>
  <path class="fil0" d="M998.31 747.31c97.03,-116.83 214.66,-297.89 214.66,-427.47 0,-147.8 -57.67,-253.71 -214.65,-253.71 -156.98,0 -214.65,105.91 -214.65,253.71 0,129.49 117.61,310.67 214.64,427.47zm-808.45 654.07c19.22,-16.43 40.14,-30.56 62.26,-42.87 12.93,-7.2 17.98,-23.18 11.54,-36.51l-6.08 -12.59c-3.47,-7.16 -9.1,-12.04 -16.69,-14.45 -7.58,-2.41 -15.01,-1.66 -21.96,2.2 -26.8,14.87 -52.1,32.05 -75.31,52.01 -6.11,5.26 -9.39,12.09 -9.69,20.14 -0.29,8.06 2.5,15.11 8.21,20.79l9.92 9.86c10.34,10.27 26.72,10.89 37.8,1.41zm113.13 -71.1c24.7,-5.42 49.81,-7.99 75.12,-8.41 14.8,-0.24 26.8,-11.95 27.41,-26.74l0.57 -13.97c0.33,-7.95 -2.34,-14.91 -7.89,-20.62 -5.55,-5.7 -12.44,-8.55 -20.4,-8.43 -30.64,0.46 -61.06,3.67 -90.94,10.31 -7.88,1.75 -13.99,6.21 -18.05,13.18 -4.06,6.97 -4.93,14.5 -2.57,22.21l4.09 13.38c4.27,13.94 18.42,22.21 32.65,19.09zm814.07 -327.84c28.36,0.41 56.68,0.52 85.04,-0.03 7.77,-0.15 14.4,-3.08 19.74,-8.73 5.34,-5.65 7.89,-12.43 7.6,-20.2l-0.52 -13.93c-0.56,-15.18 -13.23,-27.15 -28.42,-26.85 -27.45,0.53 -54.87,0.42 -82.32,0.02 -15.29,-0.22 -27.96,11.99 -28.3,27.28l-0.31 13.94c-0.17,7.72 2.45,14.42 7.81,19.97 5.36,5.56 11.96,8.42 19.68,8.53zm489.58 -168.96c13.06,-27.82 22.57,-56.75 29.48,-86.95 1.78,-7.78 0.42,-15.13 -4.02,-21.75 -4.44,-6.63 -10.73,-10.68 -18.59,-11.99l-13.75 -2.29c-14.57,-2.43 -28.47,6.88 -31.77,21.27 -5.68,24.71 -13.35,48.25 -24.08,71.22 -6.2,13.28 -1.12,29.01 11.66,36.16l12.21 6.82c7.01,3.92 14.51,4.66 22.15,2.21 7.64,-2.46 13.3,-7.44 16.71,-14.7zm-1150.84 474.56c25.08,-3.26 50.32,-3.65 75.57,-1.89 14.76,1.03 27.73,-9.59 29.62,-24.27l1.78 -13.86c1.01,-7.89 -1.04,-15.06 -6.08,-21.22 -5.04,-6.16 -11.66,-9.59 -19.6,-10.16 -30.56,-2.19 -61.14,-1.63 -91.49,2.41 -8,1.06 -14.48,4.98 -19.12,11.57 -4.65,6.6 -6.17,14.02 -4.48,21.9l2.92 13.68c3.04,14.25 16.43,23.72 30.88,21.84zm144.48 -0.12c27.07,-0.43 53.5,1.04 80.48,2.77 7.67,0.49 14.45,-1.82 20.22,-6.9 5.77,-5.08 8.92,-11.51 9.4,-19.19l0.87 -13.92c0.96,-15.33 -10.75,-28.62 -26.08,-29.59 -29.1,-1.84 -57.52,-3.36 -86.69,-2.88 -7.91,0.13 -14.67,3.16 -20.04,8.97 -5.37,5.81 -7.85,12.79 -7.34,20.69l0.88 13.93c0.95,14.87 13.39,26.36 28.29,26.12zm155.84 -1.74c28.68,1.16 57.78,1.88 86.45,1.03 7.88,-0.23 14.59,-3.33 19.87,-9.19 5.29,-5.85 7.69,-12.83 7.12,-20.7l-1 -13.89c-1.08,-14.91 -13.71,-26.33 -28.66,-25.88 -26.78,0.8 -54.05,0.08 -80.85,-1.03 -15.29,-0.63 -28.29,11.26 -29.02,26.55l-0.66 13.92c-0.37,7.71 2.08,14.47 7.3,20.16 5.21,5.69 11.73,8.72 19.44,9.03zm154.04 -57.58c15.27,-15.82 22.52,-36.95 18.79,-62.79 -0.06,-0.43 -0.12,-0.79 -0.2,-1.21 -5.32,-28.02 -29.97,-45.1 -54.48,-57.57 -7.16,-3.64 -14.7,-4.1 -22.25,-1.33 -7.55,2.76 -13,7.97 -16.12,15.38l-4.63 11.02c-5.86,13.94 0.47,30.05 14.26,36.25 8.09,3.64 14.3,7.83 12.29,12.09 -3.49,7.4 -3.68,15.12 -0.53,22.67l7.06 16.89c3.73,8.92 11.08,14.87 20.58,16.65 9.51,1.79 18.51,-1.08 25.22,-8.04zm-128.08 -152.96c-23.6,-8.44 -50.34,-18.64 -71.8,-29.87 -12.37,-6.48 -27.38,-2.93 -35.55,8.39l-8.21 11.37c-4.89,6.77 -6.44,14.52 -4.55,22.66 1.9,8.13 6.71,14.39 14.09,18.31 25.43,13.5 55.03,24.92 82.46,34.76 14.43,5.18 30.42,-2.34 35.65,-16.75l4.74 -13.09c2.63,-7.24 2.29,-14.41 -0.99,-21.38 -3.28,-6.97 -8.6,-11.8 -15.85,-14.39zm-116.95 -53.61c14.8,-12.35 36.98,-18.75 57.28,-22.57 14.4,-2.71 24.21,-16 22.57,-30.56l-1.57 -13.88c-0.91,-8 -4.69,-14.54 -11.17,-19.31 -6.48,-4.78 -13.85,-6.45 -21.75,-4.95 -34.7,6.58 -69.75,18.52 -95.18,42 -6.76,6.24 -9.85,14.57 -8.79,23.71 1.06,9.14 5.97,16.54 13.98,21.07l13.02 7.36c10.3,5.83 22.52,4.72 31.61,-2.87zm131.76 -38.49c27.46,-0.11 54.98,0.47 82.45,1.22 15.34,0.42 28.2,-11.73 28.65,-27.08l0.4 -13.94c0.22,-7.69 -2.33,-14.38 -7.61,-19.97 -5.28,-5.58 -11.83,-8.51 -19.51,-8.72 -28.28,-0.77 -56.61,-1.35 -84.9,-1.25 -7.77,0.03 -14.45,2.86 -19.88,8.43 -5.42,5.57 -8.08,12.32 -7.91,20.09l0.31 13.95c0.34,15.18 12.81,27.33 28,27.27zm161.79 -1.11c28.36,0.41 56.68,0.52 85.04,-0.03 7.77,-0.15 14.4,-3.08 19.74,-8.73 5.33,-5.65 7.89,-12.43 7.6,-20.2l-0.52 -13.93c-0.56,-15.18 -13.23,-27.15 -28.42,-26.85 -27.45,0.53 -54.87,0.42 -82.32,0.02 -15.29,-0.22 -27.96,11.99 -28.3,27.28l-0.31 13.94c-0.17,7.72 2.45,14.42 7.81,19.97 5.35,5.56 11.96,8.42 19.68,8.53zm340.27 -6.7c29.12,-3.45 58.11,-8.21 86.68,-14.8 7.72,-1.78 13.71,-6.16 17.74,-12.99 4.03,-6.82 4.99,-14.18 2.82,-21.81l-3.8 -13.41c-4.05,-14.31 -18.59,-22.91 -33.08,-19.58 -25.74,5.91 -52,10.18 -78.24,13.28 -15.02,1.78 -25.91,15.25 -24.49,30.31l1.3 13.89c0.73,7.76 4.18,14.19 10.25,19.09 6.07,4.9 13.06,6.92 20.81,6zm166.08 -49.13c27.91,-14.68 53.08,-31.67 76.6,-52.67 6.1,-5.44 9.27,-12.46 9.33,-20.63 0.05,-8.17 -3.03,-15.23 -9.05,-20.75l-10.2 -9.34c-10.58,-9.69 -26.6,-9.83 -37.34,-0.32 -18.48,16.37 -39.16,30.12 -61.05,41.67 -13.06,6.89 -18.48,22.68 -12.42,36.14l5.71 12.67c3.28,7.27 8.81,12.31 16.35,14.91 7.55,2.6 15.01,2.03 22.07,-1.68zm-466.7 -841.62c100.91,0 182.72,81.81 182.72,182.72 0,100.92 -81.81,182.72 -182.72,182.72 -100.92,0 -182.72,-81.81 -182.72,-182.72 0,-100.92 81.81,-182.72 182.72,-182.72zm0 53.82c71.19,0 128.9,57.71 128.9,128.9 0,71.19 -57.71,128.9 -128.9,128.9 -71.19,0 -128.9,-57.71 -128.9,-128.9 0,-71.19 57.71,-128.9 128.9,-128.9zm0 -158.8c155.07,0 280.77,90.54 280.77,319.84 0,229.29 -280.77,527.42 -280.77,527.42 0,0 -280.78,-298.13 -280.78,-527.42 0,-229.29 125.71,-319.84 280.78,-319.84z"/>
  <path class="fil1" d="M383.59 580.25l418.7 0c10.08,17.87 20.61,35.36 31.34,52.28l-412.21 0 -236.81 719.64 1639.17 0 -239.88 -719.64 -420.9 0c10.73,-16.92 21.26,-34.41 31.34,-52.28l427.24 0 274.73 824.21 -1783.96 0 271.22 -824.21z"/>
  <path class="fil2" d="M-0 1698.38l140.77 0c47.42,0 87.26,16.63 119.53,49.89 32.27,33.26 48.41,74.26 48.41,123 0,49.07 -16.14,90.23 -48.41,123.49 -31.94,32.93 -71.78,49.39 -119.53,49.39l-140.77 0 0 -345.76zm1393.78 503.59c0,6.87 7.08,12.23 21.24,16.09 5.29,1.14 9.76,2.32 13.41,3.54 3.65,1.21 7.65,3.04 12.01,5.47 4.36,2.43 7.69,5.65 9.98,9.66 2.29,4 3.43,8.72 3.43,14.16 0,9.72 -3.79,17.52 -11.37,23.38 -7.58,5.86 -17.17,8.8 -28.75,8.8 -10.3,0 -19.2,-2.25 -26.71,-6.76 -7.51,-4.51 -12.84,-10.62 -15.98,-18.35l16.09 -9.23c1.72,5.15 4.94,9.23 9.66,12.23 4.72,3.01 10.37,4.51 16.95,4.51 6.44,0 11.58,-1.21 15.45,-3.64 3.86,-2.43 5.79,-6.08 5.79,-10.94 0,-7.29 -7.08,-12.59 -21.24,-15.88 -4.72,-1.29 -8.3,-2.29 -10.73,-3 -2.43,-0.71 -5.76,-2 -9.98,-3.86 -4.22,-1.86 -7.4,-3.83 -9.55,-5.9 -2.14,-2.07 -4.11,-4.86 -5.9,-8.37 -1.79,-3.51 -2.68,-7.4 -2.68,-11.7 0,-9.3 3.58,-16.95 10.73,-22.96 7.3,-6.01 16.38,-9.01 27.25,-9.01 8.72,0 16.48,1.97 23.28,5.9 6.79,3.93 11.9,9.4 15.34,16.41l-15.66 8.79c-3.86,-9.15 -11.51,-13.73 -22.96,-13.73 -5.44,0 -9.98,1.29 -13.63,3.86 -3.65,2.57 -5.47,6.08 -5.47,10.51zm-80.77 78.31l-18.67 0 0 -156.62 18.67 0 0 156.62zm-77.12 -45.06l-89.9 0c1.86,9.44 6.22,16.84 13.09,22.21 6.87,5.36 15.45,8.04 25.75,8.04 14.16,0 24.46,-5.22 30.89,-15.66l15.88 9.01c-10.58,16.16 -26.32,24.24 -47.2,24.24 -16.88,0 -30.75,-5.29 -41.62,-15.88 -10.58,-10.87 -15.88,-24.39 -15.88,-40.55 0,-16.3 5.22,-29.75 15.66,-40.34 10.44,-10.73 23.95,-16.09 40.55,-16.09 15.73,0 28.53,5.58 38.4,16.73 10.02,10.87 15.02,24.17 15.02,39.91 0,2.72 -0.21,5.51 -0.64,8.37zm-52.78 -47.42c-9.87,0 -18.13,2.79 -24.78,8.37 -6.65,5.58 -10.76,13.16 -12.34,22.74l71.66 0c-1.57,-9.87 -5.51,-17.52 -11.8,-22.96 -6.3,-5.43 -13.88,-8.15 -22.74,-8.15zm-152 72.52l33.68 -87.32 20.17 0 -42.91 107.28 -21.88 0 -42.91 -107.28 20.17 0 33.68 87.32zm-124.75 -68.87l0 -18.45 18.67 0 0 107.28 -18.67 0 0 -18.45c-9.15,14.16 -22.67,21.24 -40.55,21.24 -15.16,0 -27.96,-5.43 -38.41,-16.3 -10.58,-11.02 -15.88,-24.39 -15.88,-40.12 0,-15.59 5.29,-28.89 15.88,-39.91 10.59,-11.01 23.39,-16.52 38.41,-16.52 17.88,0 31.4,7.08 40.55,21.24zm-38.19 73.59c10.87,0 19.95,-3.65 27.25,-10.94 7.3,-7.58 10.94,-16.73 10.94,-27.46 0,-10.87 -3.65,-19.95 -10.94,-27.25 -7.29,-7.44 -16.38,-11.16 -27.25,-11.16 -10.73,0 -19.74,3.72 -27.04,11.16 -7.29,7.3 -10.94,16.38 -10.94,27.25 0,10.73 3.65,19.88 10.94,27.46 7.3,7.29 16.31,10.94 27.04,10.94zm-132.9 -92.04l0 18.02c6.15,-13.3 17.31,-19.95 33.47,-19.95l0 19.52c-9.15,-0.43 -17.02,2 -23.6,7.3 -6.58,5.29 -9.87,13.8 -9.87,25.53l0 56.85 -18.67 0 0 -107.28 18.67 0zm-166.59 -42.91l108.35 0 0 18.88 -44.41 0 0 131.31 -19.74 0 0 -131.31 -44.2 0 0 -18.88zm1354.57 -431.71l99.28 0 -116.57 212.89 0 132.87 -88.42 0 0 -131.88 -116.57 -213.88 99.28 0 61.25 127.93 61.74 -127.93zm-350.67 0l87.92 0 0 345.76 -87.92 0 0 -186.22 -83.97 138.8 -8.89 0 -83.48 -138.3 0 185.72 -88.42 0 0 -345.76 88.42 0 87.92 147.69 88.41 -147.69zm-302.75 345.76l-95.33 0 -14.82 -49.89 -115.09 0 -14.82 49.89 -95.82 0 114.1 -345.76 107.68 0 114.1 345.76zm-167.94 -243.51l-34.58 117.56 69.65 0 -35.07 -117.56zm-331.89 109.65l0 50.88 133.86 0 0 82.98 -222.27 0 0 -345.76 219.8 0 0 82.49 -131.39 0 0 47.92 119.04 0 0 81.5 -119.04 0zm-132.34 133.86l-94.84 0 -60.26 -111.63 -31.61 0 0 111.63 -88.42 0 0 -345.76 138.3 0c35.24,0 64.71,11.36 88.42,34.08 24.04,22.06 36.06,50.54 36.06,85.45 0,20.42 -5.27,39.35 -15.81,56.8 -10.54,17.45 -24.86,31.29 -42.97,41.49l71.13 127.93zm-137.81 -264.26l-48.9 0 0 77.55 48.9 0c10.87,0.33 19.76,-3.13 26.67,-10.37 6.92,-7.25 10.37,-16.63 10.37,-28.16 0,-11.53 -3.46,-20.91 -10.37,-28.16 -6.91,-7.24 -15.81,-10.87 -26.67,-10.87zm-408.95 178.81l49.89 0c23.71,0 43.3,-7.9 58.78,-23.71 15.15,-16.14 22.72,-37.38 22.72,-63.72 0,-26.67 -7.57,-47.75 -22.72,-63.23 -15.15,-16.13 -34.74,-24.2 -58.78,-24.2l-49.89 0 0 174.86z"/>
 </g>
</svg>
